# xmcd CD database file
#
# Track frame offsets:
#	150
#	19012
#	31290
#	42817
#	50627
#	69092
#	86965
#	100170
#	115062
#	125365
#	146055
#
# Disc length: 2163 seconds
#
# Revision: 0
# Processed by: cddbd v1.5.1PL0 Copyright (c) Steve Scherf et al.
# Submitted via: CDex 1.51
#
DISCID=8f08710b
DTITLE=Marty Thompson - The Best Is Yet To Come
DYEAR=1995
DGENRE=Jazz
TTITLE0=Do You Believe In Angels
TTITLE1=The Best Is Yet To Come
TTITLE2=Nice And Easy
TTITLE3=How Little We Know
TTITLE4=Funny How
TTITLE5=Smile
TTITLE6=Mack The Knife
TTITLE7=Night And Day
TTITLE8=Just In Time
TTITLE9=We'll Be Together Again
TTITLE10=I've Got You Under My Skin
EXTD=YEAR: 1995
EXTT0=
EXTT1=
EXTT2=
EXTT3=
EXTT4=
EXTT5=
EXTT6=
EXTT7=
EXTT8=
EXTT9=
EXTT10=
PLAYORDER=
